<svg xmlns="http://www.w3.org/2000/svg" xmlns:xlink="http://www.w3.org/1999/xlink" width="1080" zoomAndPan="magnify" viewBox="0 0 810 809.999993" height="1080" preserveAspectRatio="xMidYMid meet" version="1.0"><defs><clipPath id="4a93cd3970"><path d="M 414 257.675781 L 422 257.675781 L 422 328 L 414 328 Z M 414 257.675781 " clip-rule="nonzero"/></clipPath><clipPath id="f6d02f9e9a"><path d="M 280.273438 392 L 351 392 L 351 399 L 280.273438 399 Z M 280.273438 392 " clip-rule="nonzero"/></clipPath><clipPath id="4069648984"><path d="M 414 463 L 422 463 L 422 532.925781 L 414 532.925781 Z M 414 463 " clip-rule="nonzero"/></clipPath><clipPath id="2f0e8451c0"><path d="M 485 392 L 555.523438 392 L 555.523438 399 L 485 399 Z M 485 392 " clip-rule="nonzero"/></clipPath><clipPath id="9298d7d5d6"><path d="M 329.402344 368.960938 L 417.902344 368.960938 L 417.902344 457.460938 L 329.402344 457.460938 Z M 329.402344 368.960938 " clip-rule="nonzero"/></clipPath><clipPath id="a23c66c13f"><path d="M 437 396 L 473 396 L 473 404.96875 L 437 404.96875 Z M 437 396 " clip-rule="nonzero"/></clipPath><clipPath id="38849ff0b8"><path d="M 422 305.21875 L 488 305.21875 L 488 329 L 422 329 Z M 422 305.21875 " clip-rule="nonzero"/></clipPath><clipPath id="addb2ce1b4"><path d="M 497 341 L 504.75 341 L 504.75 354 L 497 354 Z M 497 341 " clip-rule="nonzero"/></clipPath><clipPath id="b46f7b9e08"><path d="M 495.3125 481.664062 L 508.566406 481.664062 L 508.566406 494.71875 L 495.3125 494.71875 Z M 495.3125 481.664062 " clip-rule="nonzero"/></clipPath></defs><path fill="#ffffff" d="M 417.902344 297.585938 C 364.019531 297.585938 320.183594 341.421875 320.183594 395.304688 C 320.183594 449.1875 364.019531 493.027344 417.902344 493.027344 C 471.789062 493.027344 515.625 449.1875 515.625 395.304688 C 515.625 341.421875 471.789062 297.585938 417.902344 297.585938 Z M 417.902344 499.367188 C 403.855469 499.367188 390.226562 496.613281 377.398438 491.1875 C 365.003906 485.945312 353.875 478.441406 344.320312 468.886719 C 334.765625 459.332031 327.261719 448.203125 322.019531 435.8125 C 316.59375 422.980469 313.84375 409.351562 313.84375 395.304688 C 313.84375 381.257812 316.59375 367.628906 322.019531 354.800781 C 327.261719 342.40625 334.765625 331.277344 344.320312 321.722656 C 353.875 312.167969 365.003906 304.664062 377.398438 299.421875 C 390.226562 293.996094 403.855469 291.246094 417.902344 291.246094 C 431.949219 291.246094 445.578125 293.996094 458.410156 299.421875 C 470.800781 304.664062 481.929688 312.167969 491.484375 321.722656 C 501.039062 331.277344 508.542969 342.40625 513.785156 354.800781 C 519.210938 367.628906 521.964844 381.257812 521.964844 395.304688 C 521.964844 409.351562 519.210938 422.980469 513.785156 435.8125 C 508.542969 448.203125 501.039062 459.332031 491.484375 468.886719 C 481.929688 478.441406 470.800781 485.945312 458.410156 491.1875 C 445.578125 496.613281 431.949219 499.367188 417.902344 499.367188 " fill-opacity="1" fill-rule="nonzero"/><g clip-path="url(#4a93cd3970)"><path fill="#ffffff" d="M 417.902344 327.410156 C 416.152344 327.410156 414.734375 325.992188 414.734375 324.242188 L 414.734375 260.839844 C 414.734375 259.089844 416.152344 257.671875 417.902344 257.671875 C 419.652344 257.671875 421.074219 259.089844 421.074219 260.839844 L 421.074219 324.242188 C 421.074219 325.992188 419.652344 327.410156 417.902344 327.410156 " fill-opacity="1" fill-rule="nonzero"/></g><g clip-path="url(#f6d02f9e9a)"><path fill="#ffffff" d="M 346.839844 398.476562 L 283.4375 398.476562 C 281.6875 398.476562 280.269531 397.054688 280.269531 395.304688 C 280.269531 393.554688 281.6875 392.136719 283.4375 392.136719 L 346.839844 392.136719 C 348.589844 392.136719 350.007812 393.554688 350.007812 395.304688 C 350.007812 397.054688 348.589844 398.476562 346.839844 398.476562 " fill-opacity="1" fill-rule="nonzero"/></g><g clip-path="url(#4069648984)"><path fill="#ffffff" d="M 417.902344 532.941406 C 416.152344 532.941406 414.734375 531.519531 414.734375 529.769531 L 414.734375 466.371094 C 414.734375 464.617188 416.152344 463.199219 417.902344 463.199219 C 419.652344 463.199219 421.074219 464.617188 421.074219 466.371094 L 421.074219 529.769531 C 421.074219 531.519531 419.652344 532.941406 417.902344 532.941406 " fill-opacity="1" fill-rule="nonzero"/></g><g clip-path="url(#2f0e8451c0)"><path fill="#ffffff" d="M 552.367188 398.476562 L 488.96875 398.476562 C 487.214844 398.476562 485.796875 397.054688 485.796875 395.304688 C 485.796875 393.554688 487.214844 392.136719 488.96875 392.136719 L 552.367188 392.136719 C 554.117188 392.136719 555.539062 393.554688 555.539062 395.304688 C 555.539062 397.054688 554.117188 398.476562 552.367188 398.476562 " fill-opacity="1" fill-rule="nonzero"/></g><g clip-path="url(#9298d7d5d6)"><path fill="#ffffff" d="M 329.402344 372.984375 C 329.402344 370.761719 331.203125 368.960938 333.425781 368.960938 L 413.878906 368.960938 C 416.101562 368.960938 417.902344 370.761719 417.902344 372.984375 L 417.902344 453.4375 C 417.902344 455.660156 416.101562 457.460938 413.878906 457.460938 L 333.425781 457.460938 C 331.203125 457.460938 329.402344 455.660156 329.402344 453.4375 Z M 345.492188 389.074219 C 345.492188 386.855469 347.292969 385.050781 349.515625 385.050781 L 381.695312 385.050781 C 383.324219 385.050781 384.792969 386.03125 385.414062 387.535156 C 386.035156 389.039062 385.691406 390.769531 384.542969 391.917969 L 352.359375 424.101562 C 351.210938 425.253906 349.480469 425.597656 347.976562 424.972656 C 346.472656 424.351562 345.492188 422.882812 345.492188 421.257812 Z M 399.328125 401.449219 C 400.832031 402.074219 401.8125 403.539062 401.8125 405.167969 L 401.8125 437.347656 C 401.8125 439.570312 400.011719 441.371094 397.789062 441.371094 L 365.605469 441.371094 C 363.980469 441.371094 362.511719 440.390625 361.890625 438.886719 C 361.265625 437.382812 361.613281 435.652344 362.761719 434.503906 L 394.945312 402.320312 C 396.09375 401.171875 397.824219 400.828125 399.328125 401.449219 Z M 399.800781 377.007812 C 394.246094 377.007812 389.742188 381.511719 389.742188 387.0625 C 389.742188 392.617188 394.246094 397.121094 399.800781 397.121094 C 405.355469 397.121094 409.855469 392.617188 409.855469 387.0625 C 409.855469 381.511719 405.355469 377.007812 399.800781 377.007812 Z M 337.445312 439.359375 C 337.445312 433.804688 341.949219 429.300781 347.503906 429.300781 C 353.058594 429.300781 357.5625 433.804688 357.5625 439.359375 C 357.5625 444.914062 353.058594 449.417969 347.503906 449.417969 C 341.949219 449.417969 337.445312 444.914062 337.445312 439.359375 Z M 337.445312 439.359375 " fill-opacity="1" fill-rule="evenodd"/></g><g clip-path="url(#a23c66c13f)"><path fill="#ffffff" d="M 454.886719 400.125 C 449.667969 400.125 444.726562 398.894531 440.335938 396.71875 L 437.574219 404.992188 L 472.1875 404.992188 L 469.4375 396.71875 C 465.046875 398.894531 460.105469 400.125 454.886719 400.125 Z M 454.886719 400.125 " fill-opacity="1" fill-rule="nonzero"/></g><path fill="#ffffff" d="M 454.886719 395.257812 C 465.960938 395.257812 475.535156 388.785156 480.074219 379.4375 L 429.6875 379.4375 C 434.226562 388.785156 443.8125 395.257812 454.886719 395.257812 Z M 454.886719 395.257812 " fill-opacity="1" fill-rule="nonzero"/><g clip-path="url(#38849ff0b8)"><path fill="#ffffff" d="M 462.1875 305.21875 L 447.585938 305.21875 C 434.3125 305.21875 423.371094 315.378906 422.144531 328.335938 L 487.617188 328.335938 C 486.386719 315.378906 475.449219 305.21875 462.1875 305.21875 Z M 462.1875 305.21875 " fill-opacity="1" fill-rule="nonzero"/></g><path fill="#ffffff" d="M 405 344.152344 L 405 351.453125 C 405 352.792969 406.09375 353.886719 407.433594 353.886719 L 412.300781 353.886719 L 412.300781 341.71875 L 407.433594 341.71875 C 406.09375 341.71875 405 342.816406 405 344.152344 Z M 405 344.152344 " fill-opacity="1" fill-rule="nonzero"/><g clip-path="url(#addb2ce1b4)"><path fill="#ffffff" d="M 502.339844 341.71875 L 497.472656 341.71875 L 497.472656 353.886719 L 502.339844 353.886719 C 503.679688 353.886719 504.773438 352.792969 504.773438 351.453125 L 504.773438 344.152344 C 504.773438 342.816406 503.679688 341.71875 502.339844 341.71875 Z M 502.339844 341.71875 " fill-opacity="1" fill-rule="nonzero"/></g><path fill="#ffffff" d="M 490.171875 333.203125 L 419.601562 333.203125 C 418.261719 333.203125 417.167969 334.296875 417.167969 335.636719 L 417.167969 372.136719 C 417.167969 373.476562 418.261719 374.570312 419.601562 374.570312 L 490.171875 374.570312 C 491.511719 374.570312 492.605469 373.476562 492.605469 372.136719 L 492.605469 335.636719 C 492.605469 334.296875 491.511719 333.203125 490.171875 333.203125 Z M 485.304688 355.105469 C 485.304688 359.132812 482.03125 362.40625 478.003906 362.40625 L 431.769531 362.40625 C 427.742188 362.40625 424.46875 359.132812 424.46875 355.105469 L 424.46875 347.804688 C 424.46875 343.777344 427.742188 340.503906 431.769531 340.503906 L 478.003906 340.503906 C 482.03125 340.503906 485.304688 343.777344 485.304688 347.804688 Z M 485.304688 355.105469 " fill-opacity="1" fill-rule="nonzero"/><path fill="#ffffff" d="M 478.003906 345.371094 L 431.769531 345.371094 C 430.429688 345.371094 429.335938 346.464844 429.335938 347.804688 L 429.335938 355.105469 C 429.335938 356.441406 430.429688 357.539062 431.769531 357.539062 L 478.003906 357.539062 C 479.34375 357.539062 480.4375 356.441406 480.4375 355.105469 L 480.4375 347.804688 C 480.4375 346.464844 479.34375 345.371094 478.003906 345.371094 Z M 478.003906 345.371094 " fill-opacity="1" fill-rule="nonzero"/><path fill="#ffffff" d="M 456.488281 419.203125 C 456.488281 419.203125 457.488281 417.445312 457.332031 416.9375 C 457.175781 416.425781 455.714844 413.261719 455.714844 411.75 C 455.714844 410.238281 456.578125 407.144531 458.527344 406.070312 C 460.480469 405 463.238281 405.597656 464.488281 406.25 C 465.734375 406.898438 467.53125 409.394531 467.441406 409.78125 C 467.351562 410.167969 467.722656 410.75 466.949219 411.539062 C 466.949219 411.539062 466.75 412.308594 466.921875 412.757812 C 467.09375 413.207031 467.1875 413.335938 467.039062 413.601562 C 466.894531 413.863281 466.832031 414.0625 466.777344 414.207031 C 466.726562 414.351562 466.554688 414.5 466.539062 414.722656 C 466.527344 414.945312 466.460938 415.472656 466.460938 415.789062 C 466.460938 416.105469 466.5 416.59375 466.277344 416.882812 C 466.050781 417.175781 465.921875 417.542969 465.894531 417.753906 C 465.867188 417.964844 465.800781 418.347656 465.535156 418.71875 C 465.277344 419.085938 465.035156 419.484375 464.996094 419.679688 C 464.957031 419.878906 464.933594 419.984375 465.078125 420.035156 C 465.222656 420.089844 466.132812 420.21875 467.253906 420.445312 C 468.371094 420.667969 468.714844 421.105469 469.796875 421.089844 C 470.878906 421.078125 472.195312 421.589844 472.84375 422.132812 C 473.488281 422.671875 474.515625 423.808594 474.964844 424.320312 C 475.414062 424.835938 477.15625 426.351562 477.746094 426.839844 C 478.339844 427.328125 481.542969 429.871094 481.820312 430.070312 C 482.097656 430.265625 483.3125 430.28125 482.308594 431.097656 C 481.308594 431.914062 479.949219 433.023438 479.898438 433.089844 C 479.84375 433.152344 479.039062 433.960938 479.039062 433.960938 C 479.039062 433.960938 479.210938 434.277344 479.421875 434.300781 C 479.632812 434.328125 479.871094 434.195312 479.816406 433.960938 C 479.765625 433.722656 479.753906 433.5625 480.210938 433.285156 C 480.675781 433.011719 480.488281 433.128906 480.820312 432.890625 C 481.148438 432.652344 481.503906 432.546875 481.796875 432.613281 C 482.085938 432.679688 482.125 432.480469 482.574219 432.457031 C 483.023438 432.429688 483.441406 432.589844 483.546875 432.796875 C 483.65625 433.011719 483.640625 433.050781 483.917969 433.222656 C 484.195312 433.390625 484.523438 433.523438 484.550781 433.761719 C 484.578125 434 484.628906 434.191406 484.695312 434.304688 C 484.761719 434.421875 484.984375 434.65625 484.960938 434.828125 C 484.933594 435 485.066406 435.1875 485.171875 435.410156 C 485.273438 435.632812 485.511719 435.59375 485.328125 435.910156 C 485.144531 436.226562 485.261719 436.714844 485.050781 436.976562 C 484.84375 437.242188 484.089844 437.652344 483.800781 437.609375 C 483.511719 437.570312 483.351562 437.679688 483.207031 437.175781 L 482.808594 437.230469 C 482.808594 437.230469 482.363281 438.929688 480.859375 439.734375 C 479.355469 440.539062 478.011719 440.144531 477.140625 439.074219 C 476.273438 438.007812 475.519531 437.070312 475.242188 436.832031 C 474.964844 436.597656 474.769531 436.964844 474.648438 436.726562 C 474.53125 436.488281 474.4375 435.910156 473.59375 435.222656 C 472.75 434.539062 472.316406 434.300781 472.039062 433.960938 C 471.761719 433.617188 471.472656 433.90625 471.429688 434.15625 C 471.390625 434.40625 471.101562 434.328125 471.378906 435.144531 C 471.65625 435.964844 471.390625 437.070312 471.417969 437.859375 C 471.445312 438.652344 471.339844 439.867188 471.3125 440.394531 C 471.285156 440.921875 471.523438 442.765625 471.511719 442.992188 C 471.496094 443.214844 471.390625 444.730469 471.722656 445.5625 C 472.050781 446.390625 472.433594 446.789062 472.394531 447.433594 C 472.355469 448.082031 472.472656 450.097656 472.515625 451.574219 C 472.554688 453.050781 472.328125 453.527344 472.761719 454.265625 C 473.199219 455.003906 473.515625 455.492188 473.355469 456.03125 C 473.199219 456.574219 472.738281 456.519531 472.804688 456.886719 C 472.867188 457.257812 473.371094 459.195312 473.09375 460.078125 C 472.816406 460.960938 472.722656 461.9375 472.722656 461.9375 C 472.722656 461.9375 474.386719 464.601562 474.792969 465.328125 C 475.203125 466.054688 475.664062 466.738281 475.703125 467.542969 C 475.742188 468.34375 475.835938 469.335938 475.859375 470.03125 C 475.886719 470.730469 475.714844 472.15625 475.980469 473.183594 C 476.242188 474.210938 477.523438 476.996094 478.023438 478.632812 C 478.527344 480.265625 478.984375 482.285156 479.394531 482.941406 C 479.804688 483.601562 480.398438 484.339844 480.765625 484.878906 C 481.136719 485.421875 481.476562 486.238281 481.625 486.292969 C 481.769531 486.34375 481.898438 486.4375 482.308594 486.410156 C 482.71875 486.382812 483.152344 486.765625 483.246094 487.226562 C 483.339844 487.6875 484.417969 487.808594 484.601562 487.992188 C 484.789062 488.175781 484.535156 488.585938 484.535156 488.585938 C 484.535156 488.585938 484.878906 488.980469 485.261719 489.007812 C 485.644531 489.035156 486.355469 489.414062 486.804688 489.558594 C 487.253906 489.707031 488.742188 489.980469 489.007812 490.378906 C 489.273438 490.773438 489.507812 491.511719 488.507812 492.183594 C 487.503906 492.855469 485.355469 493.277344 484.351562 493.4375 C 483.351562 493.597656 480.859375 493.660156 479.871094 493.777344 C 478.878906 493.898438 476.441406 494.003906 476.21875 493.398438 C 475.996094 492.789062 476.136719 493.027344 476.429688 492.328125 C 476.71875 491.628906 476.8125 490.8125 476.890625 490.457031 C 476.96875 490.101562 477.21875 489.351562 477.046875 489.113281 C 476.875 488.875 476.46875 487.175781 475.636719 485.828125 C 474.804688 484.484375 473.632812 482.347656 473 481.253906 C 472.367188 480.160156 470.03125 475.875 469.96875 473.882812 C 469.902344 471.890625 469.746094 471.484375 469.746094 471.484375 C 469.746094 471.484375 469.359375 472.183594 469.359375 472.671875 C 469.359375 473.160156 469.414062 475.371094 468.769531 476.019531 C 468.121094 476.667969 466.699219 477.707031 465.289062 477.589844 C 463.875 477.472656 463.363281 477.300781 461.597656 478.039062 C 459.828125 478.777344 458.023438 479.066406 456.375 479.367188 C 454.726562 479.671875 452.773438 481.015625 452.628906 481.242188 C 452.484375 481.464844 452.667969 482.46875 452.078125 482.980469 C 451.484375 483.496094 451.519531 483.640625 451.484375 484.035156 C 451.445312 484.433594 450.992188 485.949219 450.902344 486.398438 C 450.8125 486.84375 450.519531 487.519531 449.515625 487.542969 C 448.515625 487.570312 448.066406 487.1875 447.5 486.304688 C 446.933594 485.421875 446.695312 482.519531 445.667969 481.886719 C 444.640625 481.253906 443.625 480.714844 443.703125 479 C 443.785156 477.285156 444.402344 476.335938 445.0625 476.257812 C 445.71875 476.175781 446.300781 476.453125 446.828125 476.667969 C 447.355469 476.875 448.648438 477.128906 449.058594 477.128906 C 449.464844 477.128906 450.546875 476.707031 451.640625 476.242188 C 452.738281 475.78125 454.1875 474.804688 454.738281 474.582031 C 455.292969 474.359375 456.1875 473.632812 456.597656 473.476562 C 457.007812 473.316406 458.167969 472.417969 459.433594 472.128906 C 460.699219 471.839844 462.441406 471.917969 462.507812 471.722656 C 462.570312 471.523438 462.796875 469.164062 462.625 468.054688 C 462.453125 466.949219 461.992188 466.59375 461.820312 466.417969 C 461.648438 466.25 461.558594 465.988281 461.015625 465.128906 C 460.476562 464.269531 461.226562 463.863281 460.238281 462.570312 C 459.25 461.277344 458.65625 460.011719 458.511719 459.894531 C 458.367188 459.773438 458.074219 460.054688 457.652344 459.484375 C 457.234375 458.917969 455.980469 457.191406 455.042969 453.800781 C 454.105469 450.414062 453.921875 448.292969 452.960938 445.878906 C 451.996094 443.464844 451.589844 441.804688 450.835938 440.050781 C 450.085938 438.296875 449.730469 436.675781 449.503906 435.964844 C 449.28125 435.25 449.121094 433.367188 447.539062 432.351562 C 445.957031 431.335938 444.667969 430.675781 443.808594 431.003906 C 442.953125 431.335938 442.53125 431.769531 441.910156 431.113281 C 441.292969 430.453125 440.273438 428.566406 439.996094 428.488281 C 439.722656 428.410156 439.761719 428.210938 439.195312 428.066406 C 438.625 427.921875 436.398438 427.839844 435.355469 427.816406 C 434.316406 427.789062 433.351562 427.40625 432.507812 426.996094 C 431.667969 426.589844 430.425781 425.980469 429.027344 424.835938 C 427.628906 423.6875 425.824219 421.804688 424.703125 420.839844 C 423.582031 419.878906 422.09375 418.652344 421.433594 418.359375 C 420.773438 418.070312 420.050781 417.714844 419.402344 417.242188 C 418.757812 416.765625 418.164062 415.894531 418.136719 415.578125 C 418.109375 415.261719 418.253906 414.761719 418.46875 414.75 C 418.46875 414.75 417.925781 414.273438 418.03125 413.839844 C 418.136719 413.40625 418.324219 413.207031 418.71875 413.230469 C 418.71875 413.230469 418.203125 412.769531 418.203125 412.507812 C 418.203125 412.242188 418.335938 411.753906 418.597656 411.730469 C 418.863281 411.703125 419.246094 411.796875 419.246094 411.796875 C 419.246094 411.796875 418.808594 411.175781 418.917969 410.804688 C 419.019531 410.4375 419.230469 410.371094 419.679688 410.410156 C 420.128906 410.449219 420.234375 410.59375 420.234375 410.59375 C 420.234375 410.59375 420.25 410.410156 420.550781 410.4375 C 420.851562 410.464844 420.800781 410.582031 420.921875 410.78125 C 421.039062 410.976562 421.34375 411.203125 421.683594 411.386719 C 422.027344 411.570312 422.304688 412.109375 422.714844 412.347656 C 423.121094 412.585938 423.421875 413.113281 423.4375 413.375 C 423.449219 413.640625 423.503906 414.011719 423.742188 414.457031 C 423.976562 414.90625 423.976562 415.855469 424.503906 416.277344 C 425.03125 416.699219 427.804688 418.613281 428.570312 419.074219 C 429.332031 419.535156 430.582031 420.234375 432.234375 420.679688 C 433.882812 421.128906 434.695312 421.628906 435.488281 422.09375 C 436.28125 422.554688 436.664062 422.9375 437.230469 422.871094 C 437.796875 422.804688 437.296875 422.644531 438.207031 422.671875 C 439.117188 422.699219 439.667969 422.855469 440.683594 422.6875 C 441.699219 422.515625 442.808594 422.226562 443.320312 422.316406 C 443.835938 422.410156 444.046875 422.394531 444.484375 422.382812 C 444.914062 422.367188 445.007812 422.488281 445.324219 422.144531 C 445.640625 421.804688 446.101562 421.460938 446.578125 421.472656 C 447.054688 421.484375 447.515625 420.746094 448.636719 420.65625 C 449.753906 420.5625 450.414062 420.5625 450.863281 420.429688 C 451.3125 420.300781 451.890625 419.996094 452.773438 420.101562 C 453.660156 420.207031 454.066406 420.21875 454.460938 420.15625 C 454.859375 420.089844 455.203125 419.890625 455.4375 419.839844 C 455.675781 419.785156 455.742188 419.414062 455.964844 419.351562 C 456.1875 419.285156 456.488281 419.203125 456.488281 419.203125 " fill-opacity="1" fill-rule="nonzero"/><g clip-path="url(#b46f7b9e08)"><path fill="#ffffff" d="M 501.945312 481.6875 C 498.292969 481.6875 495.320312 484.609375 495.320312 488.203125 C 495.320312 491.796875 498.292969 494.71875 501.945312 494.71875 C 505.597656 494.71875 508.566406 491.796875 508.566406 488.203125 C 508.566406 484.609375 505.597656 481.6875 501.945312 481.6875 Z M 496.210938 485.539062 Z M 495.929688 486.246094 C 495.925781 486.261719 495.917969 486.277344 495.910156 486.292969 C 495.917969 486.273438 495.921875 486.253906 495.929688 486.234375 Z M 495.859375 486.484375 C 495.828125 486.589844 495.800781 486.699219 495.777344 486.804688 C 495.769531 486.824219 495.761719 486.835938 495.753906 486.855469 C 495.78125 486.730469 495.824219 486.609375 495.859375 486.484375 Z M 495.8125 489.773438 C 495.816406 489.792969 495.824219 489.8125 495.828125 489.832031 C 495.820312 489.808594 495.808594 489.78125 495.800781 489.757812 C 495.804688 489.761719 495.808594 489.765625 495.8125 489.773438 Z M 508.246094 488.804688 C 508.253906 488.742188 508.253906 488.679688 508.253906 488.613281 C 508.261719 488.609375 508.265625 488.609375 508.269531 488.605469 C 508.265625 488.671875 508.253906 488.734375 508.246094 488.804688 Z M 508.027344 489.953125 C 508.03125 489.941406 508.035156 489.933594 508.039062 489.921875 C 508.035156 489.933594 508.03125 489.941406 508.027344 489.953125 Z M 508.164062 489.390625 C 508.1875 489.269531 508.207031 489.140625 508.222656 489.015625 C 508.207031 489.140625 508.1875 489.269531 508.164062 489.390625 Z M 508.277344 488.226562 C 508.277344 488.222656 508.277344 488.222656 508.277344 488.21875 C 508.277344 487.804688 508.234375 487.398438 508.15625 487.007812 C 508.234375 487.394531 508.285156 487.792969 508.285156 488.203125 C 508.285156 488.210938 508.285156 488.210938 508.285156 488.21875 C 508.28125 488.21875 508.277344 488.222656 508.277344 488.226562 Z M 507.851562 485.953125 C 507.878906 486.027344 507.90625 486.105469 507.933594 486.179688 C 507.910156 486.105469 507.878906 486.027344 507.851562 485.953125 Z M 508.03125 486.496094 C 508.074219 486.632812 508.109375 486.773438 508.140625 486.914062 C 508.113281 486.773438 508.070312 486.632812 508.03125 486.496094 " fill-opacity="1" fill-rule="nonzero"/></g></svg>