<?xml version="1.0" encoding="UTF-8" standalone="no"?>
<!-- Generator: Adobe Illustrator 24.0.2, SVG Export Plug-In . SVG Version: 6.00 Build 0)  -->

<svg
   xmlns:dc="http://purl.org/dc/elements/1.1/"
   xmlns:cc="http://creativecommons.org/ns#"
   xmlns:rdf="http://www.w3.org/1999/02/22-rdf-syntax-ns#"
   xmlns:svg="http://www.w3.org/2000/svg"
   xmlns="http://www.w3.org/2000/svg"
   xmlns:sodipodi="http://sodipodi.sourceforge.net/DTD/sodipodi-0.dtd"
   xmlns:inkscape="http://www.inkscape.org/namespaces/inkscape"
   version="1.1"
   id="Layer_1"
   x="0px"
   y="0px"
   viewBox="0 0 278 360.00002"
   xml:space="preserve"
   sodipodi:docname="Team_Liquid_logo.svg"
   width="278"
   height="360"
   inkscape:version="0.92.5 (2060ec1f9f, 2020-04-08)"><metadata
   id="metadata1153"><rdf:RDF><cc:Work
       rdf:about=""><dc:format>image/svg+xml</dc:format><dc:type
         rdf:resource="http://purl.org/dc/dcmitype/StillImage" /><dc:title></dc:title></cc:Work></rdf:RDF></metadata><defs
   id="defs1151" /><sodipodi:namedview
   pagecolor="#ffffff"
   bordercolor="#666666"
   borderopacity="1"
   objecttolerance="10"
   gridtolerance="10"
   guidetolerance="10"
   inkscape:pageopacity="0"
   inkscape:pageshadow="2"
   inkscape:window-width="1920"
   inkscape:window-height="1017"
   id="namedview1149"
   showgrid="false"
   inkscape:zoom="1.68"
   inkscape:cx="322.46599"
   inkscape:cy="216.20184"
   inkscape:window-x="-8"
   inkscape:window-y="-8"
   inkscape:window-maximized="1"
   inkscape:current-layer="Layer_1" />
<style
   type="text/css"
   id="style1085">
	.st0{fill:#0A1723;stroke:#031422;stroke-miterlimit:10;}
	.st1{fill:url(#SVGID_1_);}
	.st2{fill:#FFFFFF;}
	.st3{fill:#031422;}
</style>
<g
   id="g1099"
   transform="matrix(0.15757846,0,0,0.15757846,2,1.73306)">
	<g
   id="base_4_">
		<path
   class="st0"
   d="m 867.71,1694.33 c -3.01,-1.12 -303.29,-113.8 -470.19,-228.84 -255.66,-176.12 -267,-418.79 -267,-907.38 V 264.75 L 870.89,9.57 1611.18,264.74 V 558.1 c 0,488.59 -11.34,731.26 -267,907.38 -166.9,115.04 -467.12,227.72 -470.12,228.84 l -3.17,1.18 z"
   id="path1087"
   inkscape:connector-curvature="0"
   style="fill:#0a1723;stroke:#031422;stroke-miterlimit:10" />
		<linearGradient
   id="SVGID_1_"
   gradientUnits="userSpaceOnUse"
   x1="204.80969"
   y1="226.01109"
   x2="1530.1445"
   y2="1285.5702">
			<stop
   offset="0"
   style="stop-color:#AD9742"
   id="stop1089" />
			<stop
   offset="0.486"
   style="stop-color:#C4BA40"
   id="stop1091" />
			<stop
   offset="1"
   style="stop-color:#AD9742"
   id="stop1093" />
		</linearGradient>
		<path
   class="st1"
   d="m 870.89,19.16 731.25,252.05 v 286.91 c 0,483.39 -9.95,725.55 -263.09,899.92 -167.91,115.75 -468.16,227.81 -468.16,227.81 0,0 -300.3,-112.07 -468.22,-227.82 C 149.53,1283.66 139.58,1041.5 139.58,558.11 V 271.21 L 870.89,19.16 m 0,-19.16 -5.9,2.03 -731.3,252.05 -12.21,4.21 v 12.92 286.91 c 0,491.81 11.51,736.15 270.93,914.83 167.82,115.69 459.81,225.26 472.16,229.87 l 6.33,2.36 6.33,-2.36 c 12.35,-4.61 304.28,-114.18 472.11,-229.87 259.41,-178.69 270.92,-423.02 270.92,-914.83 V 271.21 258.29 L 1608.05,254.08 876.79,2.03 Z"
   id="path1096"
   style="fill:url(#SVGID_1_)"
   inkscape:connector-curvature="0" />
	</g>
</g>
<g
   id="new_1_"
   transform="matrix(0.15757846,0,0,0.15757846,2,1.73306)">
	<g
   id="g1119">
		<path
   class="st2"
   d="m 418.46,1017.58 c -45.88,22.63 -106.83,49.37 -174.35,73.07 11.92,51.37 28.28,97.24 50.68,138.82 50.49,-32.1 95.15,-64.51 129.65,-91.67 -4.8,-42.02 -6.71,-82.09 -5.98,-120.22 z"
   id="path1101"
   inkscape:connector-curvature="0"
   style="fill:#ffffff" />
		<path
   class="st2"
   d="m 531.71,641.49 -0.03,0.03 C 446.28,607.43 318.56,546.35 212.08,465.96 v 117.85 c 0,22.02 0.04,43.37 0.11,64.31 99.6,37.61 201.62,61.15 273.78,73.58 13.77,-28.73 29.18,-55.41 45.74,-80.21 z"
   id="path1103"
   inkscape:connector-curvature="0"
   style="fill:#ffffff" />
		<path
   class="st2"
   d="M 651.91,505.87 C 592.9,445.25 510.43,349.16 447.31,243.28 l -162.86,56.3 c 90.08,114.39 218.22,213.67 302.64,270.11 20.95,-23.63 42.76,-44.84 64.82,-63.82 z"
   id="path1105"
   inkscape:connector-curvature="0"
   style="fill:#ffffff" />
		<path
   class="st2"
   d="m 726.54,450.07 -0.01,0.01 c 30.13,-19.4 59.24,-34.61 85.56,-45.97 C 787.68,337.92 758.44,242.58 740.91,141.77 L 595.9,191.92 c 38.93,101.27 90.86,195.07 130.64,258.15 z"
   id="path1107"
   inkscape:connector-curvature="0"
   style="fill:#ffffff" />
		<path
   class="st2"
   d="m 451.09,810.65 -0.04,0.1 c -62.38,2.44 -147.74,1.43 -236.78,-8.87 1.49,52.08 3.97,100.21 8.02,144.93 78.71,-9.03 151.54,-23.9 205.75,-37.68 v 0.03 c 5.54,-34.74 13.38,-67.54 23.05,-98.51 z"
   id="path1109"
   inkscape:connector-curvature="0"
   style="fill:#ffffff" />
		<path
   class="st2"
   d="m 448.53,1271.54 c -18.14,21.78 -40.03,46.66 -64.72,72.83 19.51,18.28 41.09,35.73 65.27,52.43 14.75,10.22 30.68,20.38 47.33,30.42 -20.17,-54.33 -35.88,-106.12 -47.88,-155.68 z"
   id="path1111"
   inkscape:connector-curvature="0"
   style="fill:#ffffff" />
		<path
   class="st2"
   d="m 1144.1,673.28 c 14.59,11.92 52.47,0.83 52.47,0.83 l -27.43,-32.61 -58.71,-39.17 c 0,0 19.05,59.01 33.67,70.95 z"
   id="path1113"
   inkscape:connector-curvature="0"
   style="fill:#ffffff" />
		<polygon
   class="st2"
   points="1377.97,1016.14 1335.77,999.79 1300.49,971.36 1320.81,1020.5 "
   id="polygon1115"
   style="fill:#ffffff" />
		<path
   class="st2"
   d="m 911.9,111.05 c -24.28,77.71 -31.92,173.26 -4.55,267.16 l -0.63,0.17 c 0.2,0 0.43,-0.03 0.65,-0.03 9.78,-10.16 84.82,-88.53 152.13,-162.44 0,0 88.76,101.84 -35.34,206.67 0,0 221.24,154.64 235.55,161.24 0,0 -11.48,48.09 -0.45,89.16 l 174,337.33 -87.85,103.53 -128.77,-72.57 62.08,99.57 c 0,0 -70.16,8.71 -91.55,-1.92 -12.09,-63.12 -67.95,-165.3 -67.95,-165.3 L 988.18,920.56 c 0,0 -57.13,-70.19 -53.14,-172.52 0,0 -65.28,268.16 110.97,335.05 l 246.65,313.71 c 228.04,-157.51 237,-376.3 237,-812.99 V 324.6 Z"
   id="path1117"
   inkscape:connector-curvature="0"
   style="fill:#ffffff" />
	</g>
</g>
<g
   id="g1146"
   transform="matrix(0.15757846,0,0,0.15757846,2,1.73306)">
	<g
   id="g1134">
		<path
   class="st3"
   d="m 882.59,1772.03 h 55.94 v 359.43 h 63.78 v 53.91 H 882.59 Z"
   id="path1122"
   inkscape:connector-curvature="0"
   style="fill:#031422" />
		<path
   class="st3"
   d="m 1042.15,1772.03 h 55.94 v 413.34 h -55.94 z"
   id="path1124"
   inkscape:connector-curvature="0"
   style="fill:#031422" />
		<path
   class="st3"
   d="m 1323.56,2100.98 v -328.95 h 55.94 v 328.86 c 0,22.16 3.66,30.55 16.21,30.55 12.03,0 15.68,-8.39 15.68,-30.55 v -328.86 h 54.89 v 328.95 c 0,52.72 -27.71,84.47 -71.62,84.47 -43.39,-0.01 -71.1,-31.76 -71.1,-84.47 z"
   id="path1126"
   inkscape:connector-curvature="0"
   style="fill:#031422" />
		<path
   class="st3"
   d="m 1506.2,1772.03 h 55.94 v 413.34 h -55.94 z"
   id="path1128"
   inkscape:connector-curvature="0"
   style="fill:#031422" />
		<path
   class="st3"
   d="m 1601.88,1772.03 h 72.67 c 48.62,0 73.19,28.75 73.19,85.66 v 242.01 c 0,56.91 -24.57,85.66 -73.19,85.66 h -72.67 z m 67.43,359.42 c 17.78,0 22.48,-7.19 22.48,-35.94 v -233.63 c 0,-28.75 -4.7,-35.94 -22.48,-35.94 h -11.5 v 305.51 z"
   id="path1130"
   inkscape:connector-curvature="0"
   style="fill:#031422" />
		<path
   class="st3"
   d="m 1261.07,2206.08 c -9.93,0 -14.64,-5.39 -14.64,-16.77 v -12.7 c 4.58,-2.55 8.79,-5.63 12.59,-9.23 9.6,-9 16.51,-21.2 20.51,-36.12 0.07,-0.27 0.15,-0.55 0.22,-0.82 0.02,-0.07 0.03,-0.13 0.05,-0.2 2.46,-9.52 3.75,-20.15 3.75,-31.79 v -0.42 -238.79 -0.42 c 0,-54.51 -27.19,-86.86 -72.67,-86.86 -19.79,0 -36.34,6.27 -48.66,17.93 -9.6,9 -16.51,21.2 -20.51,36.12 -0.07,0.27 -0.15,0.54 -0.22,0.82 -0.02,0.07 -0.03,0.13 -0.05,0.2 -2.46,9.52 -3.75,20.15 -3.75,31.79 v 0.42 238.79 0.42 c 0,47.22 20.4,77.81 55.41,85.15 v 11.45 c 0,44.93 18.82,65.9 58.55,65.9 h 31.89 v -54.86 h -22.47 z m -67.44,-348.38 c 0,-22.76 4.18,-31.75 17.25,-31.75 12.55,0 16.73,8.99 16.73,31.75 v 242.04 c 0,22.76 -4.18,31.75 -17.25,31.75 -12.55,0 -16.73,-8.99 -16.73,-31.75 z"
   id="path1132"
   inkscape:connector-curvature="0"
   style="fill:#031422" />
	</g>
	<g
   id="g1144">
		<polygon
   class="st3"
   points="99.85,2185.37 99.85,1825.94 143.77,1825.94 143.77,1772.03 0,1772.03 0,1825.94 43.91,1825.94 43.91,2185.37 "
   id="polygon1136"
   style="fill:#031422" />
		<polygon
   class="st3"
   points="239.32,2131.45 239.32,2005.79 295.22,2005.79 295.22,1951.88 239.32,1951.88 239.32,1825.94 308.33,1825.94 308.33,1772.03 183.38,1772.03 183.38,2185.37 308.33,2185.37 308.33,2131.45 "
   id="polygon1138"
   style="fill:#031422" />
		<path
   class="st3"
   d="m 387.63,1772.03 -39.21,413.34 h 53.85 l 6.27,-87.46 h 32.41 l 6.8,87.46 h 56.46 L 465,1772.03 Z m 23.53,271.41 9.13,-137.62 c 0.07,-5.97 1.2,-8.32 4.63,-8.28 3.29,0.04 4.36,2.41 4.29,8.39 l 9.13,137.51 z"
   id="path1140"
   inkscape:connector-curvature="0"
   style="fill:#031422" />
		<path
   class="st3"
   d="m 674.22,1772.03 c 0,0 -19.11,184.31 -19.11,184.66 l -0.39,3.73 c -0.56,2.45 -1.77,3.51 -3.96,3.52 -2.22,0.01 -3.46,-0.98 -4.07,-3.28 l -0.49,-4.71 c 0,-0.11 -19.03,-183.92 -19.03,-183.92 h -83.12 v 413.34 h 48.1 l 0.06,-279.79 c -0.16,-5.55 0.72,-8 3.6,-8.4 h 1.66 c 1.71,0.26 2.7,1.43 3.21,3.78 l 28.59,284.41 h 41.3 l 28.68,-285.33 c 0.56,-1.74 1.5,-2.64 2.97,-2.86 h 1.66 c 2.88,0.4 3.76,2.85 3.6,8.4 l 0.21,279.79 h 55.41 v -413.34 z"
   id="path1142"
   inkscape:connector-curvature="0"
   style="fill:#031422" />
	</g>
</g>
</svg>